# MagicaVoxel @ Ephtracy

# group
o 

# material
mtllib coin.mtl
usemtl palette

# normals
vn -1 0 0
vn 1 0 0
vn 0 0 1
vn 0 0 -1
vn 0 -1 0
vn 0 1 0

# texcoords
vt 0.0175781 0.5
vt 0.0214844 0.5
vt 0.994141 0.5

# verts
v -0.5 0 0
v -0.5 0 -0.1
v -0.5 1 0
v -0.5 1 -0.1
v 0.2 0.2 0
v 0.2 0.2 -0.1
v 0.2 0.3 0
v 0.2 0.3 -0.1
v -0.1 0.2 0
v -0.1 0.2 -0.1
v -0.1 0.3 0
v -0.1 0.3 -0.1
v 0.5 0 0
v 0.5 0 -0.1
v 0.5 1 0
v 0.5 1 -0.1
v -0.5 0 0
v -0.5 1 0
v -0.2 0.3 0
v -0.2 0.7 0
v -0.1 0.2 0
v -0.1 0.3 0
v -0.1 0.5 0
v -0.1 0.6 0
v -0.1 0.7 0
v -0.1 0.8 0
v 0 0.4 0
v 0 0.5 0
v 0.2 0.2 0
v 0.2 0.3 0
v 0.2 0.6 0
v 0.2 0.8 0
v 0.2 0.9 0
v 0.3 0.3 0
v 0.3 0.4 0
v 0.3 0.8 0
v 0.3 0.9 0
v 0.5 0 0
v 0.5 1 0
v -0.5 0 -0.1
v -0.5 1 -0.1
v -0.2 0.3 -0.1
v -0.2 0.7 -0.1
v -0.1 0.2 -0.1
v -0.1 0.3 -0.1
v -0.1 0.5 -0.1
v -0.1 0.6 -0.1
v -0.1 0.7 -0.1
v -0.1 0.8 -0.1
v 0 0.4 -0.1
v 0 0.5 -0.1
v 0.2 0.2 -0.1
v 0.2 0.3 -0.1
v 0.2 0.6 -0.1
v 0.2 0.8 -0.1
v 0.2 0.9 -0.1
v 0.3 0.3 -0.1
v 0.3 0.4 -0.1
v 0.3 0.8 -0.1
v 0.3 0.9 -0.1
v 0.5 0 -0.1
v 0.5 1 -0.1
v -0.5 0 0
v 0.5 0 0
v -0.5 0 -0.1
v 0.5 0 -0.1
v -0.1 0.3 0
v 0.2 0.3 0
v -0.1 0.3 -0.1
v 0.2 0.3 -0.1
v -0.1 0.2 0
v 0.2 0.2 0
v -0.1 0.2 -0.1
v 0.2 0.2 -0.1
v -0.5 1 0
v 0.5 1 0
v -0.5 1 -0.1
v 0.5 1 -0.1

# faces
f 3/1/1 2/1/1 1/1/1
f 4/1/1 2/1/1 3/1/1
f 7/1/1 6/1/1 5/1/1
f 8/1/1 6/1/1 7/1/1
f 9/1/2 10/1/2 11/1/2
f 11/1/2 10/1/2 12/1/2
f 13/1/2 14/1/2 15/1/2
f 15/1/2 14/1/2 16/1/2
f 19/1/3 18/1/3 17/1/3
f 20/1/3 18/1/3 19/1/3
f 21/1/3 19/1/3 17/1/3
f 22/3/3 20/3/3 19/3/3
f 22/1/3 19/1/3 21/1/3
f 23/3/3 20/3/3 22/3/3
f 24/3/3 20/3/3 23/3/3
f 25/1/3 18/1/3 20/1/3
f 25/3/3 20/3/3 24/3/3
f 26/1/3 18/1/3 25/1/3
f 27/3/3 23/3/3 22/3/3
f 28/1/3 24/1/3 23/1/3
f 28/3/3 23/3/3 27/3/3
f 29/1/3 21/1/3 17/1/3
f 30/3/3 27/3/3 22/3/3
f 31/1/3 24/1/3 28/1/3
f 31/3/3 26/3/3 25/3/3
f 31/3/3 25/3/3 24/3/3
f 31/1/3 28/1/3 27/1/3
f 32/1/3 18/1/3 26/1/3
f 32/3/3 26/3/3 31/3/3
f 33/1/3 18/1/3 32/1/3
f 34/1/3 30/1/3 29/1/3
f 34/3/3 27/3/3 30/3/3
f 35/1/3 31/1/3 27/1/3
f 35/3/3 27/3/3 34/3/3
f 35/1/3 32/1/3 31/1/3
f 36/2/3 33/2/3 32/2/3
f 36/1/3 32/1/3 35/1/3
f 37/1/3 18/1/3 33/1/3
f 37/2/3 33/2/3 36/2/3
f 38/1/3 29/1/3 17/1/3
f 38/1/3 36/1/3 35/1/3
f 38/1/3 37/1/3 36/1/3
f 38/1/3 34/1/3 29/1/3
f 38/1/3 35/1/3 34/1/3
f 39/1/3 18/1/3 37/1/3
f 39/1/3 37/1/3 38/1/3
f 40/1/4 41/1/4 42/1/4
f 42/1/4 41/1/4 43/1/4
f 40/1/4 42/1/4 44/1/4
f 42/3/4 43/3/4 45/3/4
f 44/1/4 42/1/4 45/1/4
f 45/3/4 43/3/4 46/3/4
f 46/3/4 43/3/4 47/3/4
f 43/1/4 41/1/4 48/1/4
f 47/3/4 43/3/4 48/3/4
f 48/1/4 41/1/4 49/1/4
f 45/3/4 46/3/4 50/3/4
f 46/1/4 47/1/4 51/1/4
f 50/3/4 46/3/4 51/3/4
f 40/1/4 44/1/4 52/1/4
f 45/3/4 50/3/4 53/3/4
f 51/1/4 47/1/4 54/1/4
f 48/3/4 49/3/4 54/3/4
f 47/3/4 48/3/4 54/3/4
f 50/1/4 51/1/4 54/1/4
f 49/1/4 41/1/4 55/1/4
f 54/3/4 49/3/4 55/3/4
f 55/1/4 41/1/4 56/1/4
f 52/1/4 53/1/4 57/1/4
f 53/3/4 50/3/4 57/3/4
f 50/1/4 54/1/4 58/1/4
f 57/3/4 50/3/4 58/3/4
f 54/1/4 55/1/4 58/1/4
f 55/2/4 56/2/4 59/2/4
f 58/1/4 55/1/4 59/1/4
f 56/1/4 41/1/4 60/1/4
f 59/2/4 56/2/4 60/2/4
f 40/1/4 52/1/4 61/1/4
f 58/1/4 59/1/4 61/1/4
f 59/1/4 60/1/4 61/1/4
f 52/1/4 57/1/4 61/1/4
f 57/1/4 58/1/4 61/1/4
f 60/1/4 41/1/4 62/1/4
f 61/1/4 60/1/4 62/1/4
f 65/1/5 64/1/5 63/1/5
f 66/1/5 64/1/5 65/1/5
f 69/3/5 68/3/5 67/3/5
f 70/3/5 68/3/5 69/3/5
f 71/1/6 72/1/6 73/1/6
f 73/1/6 72/1/6 74/1/6
f 75/1/6 76/1/6 77/1/6
f 77/1/6 76/1/6 78/1/6
